<svg width="24" height="24" viewBox="0 0 24 24" fill="none" xmlns="http://www.w3.org/2000/svg">
<path d="M19.9062 1.05078L2.03125 11.3633C0.527344 12.2227 0.65625 14.4141 2.24609 15.0586L7.1875 17.0781V20.6875C7.1875 22.707 9.72266 23.5234 10.8828 21.9336L12.7734 19.3984L17.5859 21.375C17.8438 21.5039 18.1016 21.5469 18.3594 21.5469C18.7031 21.5469 19.0469 21.4609 19.3906 21.2891C19.9492 20.9453 20.293 20.4297 20.4219 19.7852L22.957 3.15625C23.2148 1.4375 21.3672 0.191406 19.9062 1.05078ZM9.25 20.6875V17.9375L10.7969 18.582L9.25 20.6875ZM18.3594 19.4844L11.7422 16.7344L17.8008 8.05469C18.2305 7.36719 17.3711 6.59375 16.7695 7.15234L7.66016 15.0586L3.0625 13.125L20.9375 2.8125L18.3594 19.4844Z" fill="white"/>
</svg>
