<svg width="22" height="24" viewBox="0 0 22 24" fill="none" xmlns="http://www.w3.org/2000/svg">
<path d="M16.874 4.152C16.6129 4.152 16.3577 4.23645 16.1406 4.39468C15.9236 4.55291 15.7544 4.77781 15.6545 5.04094C15.5546 5.30406 15.5284 5.5936 15.5794 5.87293C15.6303 6.15226 15.756 6.40885 15.9406 6.61023C16.1252 6.81162 16.3604 6.94877 16.6165 7.00433C16.8725 7.05989 17.1379 7.03138 17.3791 6.92239C17.6203 6.8134 17.8265 6.62883 17.9715 6.39202C18.1166 6.15521 18.194 5.87681 18.194 5.592C18.194 5.21009 18.0549 4.84382 17.8074 4.57377C17.5598 4.30371 17.2241 4.152 16.874 4.152ZM21.934 7.056C21.9126 6.06036 21.7417 5.07528 21.428 4.14C21.1483 3.33976 20.713 2.61513 20.152 2.016C19.6073 1.40091 18.9415 0.929012 18.205 0.636C17.3499 0.283393 16.4459 0.092652 15.532 0.0719999C14.366 -6.70552e-08 13.992 0 11 0C8.008 0 7.634 -6.70552e-08 6.468 0.0719999C5.55407 0.092652 4.65008 0.283393 3.795 0.636C3.05984 0.931978 2.39463 1.40347 1.848 2.016C1.28417 2.61021 0.851594 3.33653 0.583 4.14C0.259777 5.07281 0.084931 6.05898 0.0659999 7.056C-6.14673e-08 8.328 0 8.736 0 12C0 15.264 -6.14673e-08 15.672 0.0659999 16.944C0.084931 17.941 0.259777 18.9272 0.583 19.86C0.851594 20.6635 1.28417 21.3898 1.848 21.984C2.39463 22.5965 3.05984 23.068 3.795 23.364C4.65008 23.7166 5.55407 23.9073 6.468 23.928C7.634 24 8.008 24 11 24C13.992 24 14.366 24 15.532 23.928C16.4459 23.9073 17.3499 23.7166 18.205 23.364C18.9415 23.071 19.6073 22.5991 20.152 21.984C20.7155 21.3871 21.1512 20.6618 21.428 19.86C21.7417 18.9247 21.9126 17.9396 21.934 16.944C21.934 15.672 22 15.264 22 12C22 8.736 22 8.328 21.934 7.056ZM19.954 16.8C19.946 17.5617 19.8195 18.3164 19.58 19.032C19.4044 19.5542 19.1223 20.0261 18.755 20.412C18.3982 20.8086 17.9665 21.1157 17.49 21.312C16.8341 21.5733 16.1423 21.7113 15.444 21.72C14.344 21.78 13.937 21.792 11.044 21.792C8.151 21.792 7.744 21.792 6.644 21.72C5.91898 21.7348 5.19705 21.613 4.51 21.36C4.05436 21.1537 3.64249 20.8473 3.3 20.46C2.9349 20.0745 2.65633 19.6022 2.486 19.08C2.21744 18.3542 2.06849 17.5823 2.046 16.8C2.046 15.6 1.98 15.156 1.98 12C1.98 8.844 1.98 8.4 2.046 7.2C2.05093 6.42127 2.18125 5.64953 2.431 4.92C2.62465 4.41349 2.92189 3.96199 3.3 3.6C3.63419 3.1874 4.04722 2.85971 4.51 2.64C5.18051 2.37605 5.8872 2.2381 6.6 2.232C7.7 2.232 8.107 2.16 11 2.16C13.893 2.16 14.3 2.16 15.4 2.232C16.0982 2.24074 16.7901 2.3787 17.446 2.64C17.9459 2.84238 18.3945 3.17142 18.755 3.6C19.1155 3.96861 19.3971 4.41928 19.58 4.92C19.8245 5.65072 19.951 6.42214 19.954 7.2C20.009 8.4 20.02 8.844 20.02 12C20.02 15.156 20.009 15.6 19.954 16.8ZM11 5.844C9.88439 5.84637 8.79446 6.20943 7.86792 6.8873C6.94138 7.56517 6.21982 8.52744 5.7944 9.6525C5.36898 10.7776 5.2588 12.015 5.47777 13.2083C5.69675 14.4017 6.23506 15.4974 7.02468 16.3572C7.81431 17.2169 8.81981 17.802 9.91415 18.0386C11.0085 18.2751 12.1425 18.1525 13.173 17.6862C14.2035 17.22 15.0842 16.4309 15.7037 15.4188C16.3233 14.4068 16.654 13.217 16.654 12C16.6555 11.1901 16.5101 10.3879 16.2264 9.63955C15.9426 8.89117 15.526 8.21137 15.0006 7.63926C14.4751 7.06715 13.8511 6.61401 13.1646 6.30592C12.478 5.99782 11.7424 5.84084 11 5.844ZM11 15.996C10.2755 15.996 9.56732 15.7616 8.96495 15.3226C8.36257 14.8835 7.89307 14.2594 7.61583 13.5292C7.33859 12.799 7.26605 11.9956 7.40738 11.2204C7.54872 10.4453 7.89759 9.73325 8.40987 9.1744C8.92215 8.61555 9.57483 8.23497 10.2854 8.08078C10.9959 7.9266 11.7324 8.00573 12.4018 8.30818C13.0711 8.61063 13.6432 9.1228 14.0457 9.77994C14.4482 10.4371 14.663 11.2097 14.663 12C14.663 12.5248 14.5683 13.0444 14.3842 13.5292C14.2001 14.014 13.9303 14.4545 13.5901 14.8256C13.25 15.1967 12.8462 15.491 12.4018 15.6918C11.9574 15.8926 11.481 15.996 11 15.996Z" fill="white" fill-opacity="0.86"/>
</svg>
